TITLE ""
FILE "DISC1Track20.mp3" MP3
  TRACK 01 AUDIO
    TITLE "DISC1Track20_01"
    INDEX 01 00:00:00
  TRACK 02 AUDIO
    TITLE "DISC1Track20_02"
    INDEX 01 00:01:22
  TRACK 03 AUDIO
    TITLE "DISC1Track20_03"
    INDEX 01 00:01:35
  TRACK 04 AUDIO
    TITLE "DISC1Track20_04"
    INDEX 01 00:05:41
  TRACK 05 AUDIO
    TITLE "DISC1Track20_05"
    INDEX 01 00:09:15
  TRACK 06 AUDIO
    TITLE "DISC1Track20_06"
    INDEX 01 00:12:43
  TRACK 07 AUDIO
    TITLE "DISC1Track20_07"
    INDEX 01 00:12:61
  TRACK 08 AUDIO
    TITLE "DISC1Track20_08"
    INDEX 01 00:16:29
  TRACK 09 AUDIO
    TITLE "DISC1Track20_09"
    INDEX 01 00:19:45
  TRACK 10 AUDIO
    TITLE "DISC1Track20_10"
    INDEX 01 00:22:33
  TRACK 11 AUDIO
    TITLE "DISC1Track20_11"
    INDEX 01 00:22:47
  TRACK 12 AUDIO
    TITLE "DISC1Track20_12"
    INDEX 01 00:26:63
  TRACK 13 AUDIO
    TITLE "DISC1Track20_13"
    INDEX 01 00:31:48
  TRACK 14 AUDIO
    TITLE "DISC1Track20_14"
    INDEX 01 00:35:73
  TRACK 15 AUDIO
    TITLE "DISC1Track20_15"
    INDEX 01 00:36:12
  TRACK 16 AUDIO
    TITLE "DISC1Track20_16"
    INDEX 01 00:39:34
  TRACK 17 AUDIO
    TITLE "DISC1Track20_17"
    INDEX 01 00:42:32
  TRACK 18 AUDIO
    TITLE "DISC1Track20_18"
    INDEX 01 00:44:74
  TRACK 19 AUDIO
    TITLE "DISC1Track20_19"
    INDEX 01 00:45:13
  TRACK 20 AUDIO
    TITLE "DISC1Track20_20"
    INDEX 01 00:46:52
  TRACK 21 AUDIO
    TITLE "DISC1Track20_21"
    INDEX 01 00:48:72
  TRACK 22 AUDIO
    TITLE "DISC1Track20_22"
    INDEX 01 00:50:61
  TRACK 23 AUDIO
    TITLE "DISC1Track20_23"
    INDEX 01 00:51:00
  TRACK 24 AUDIO
    TITLE "DISC1Track20_24"
    INDEX 01 00:54:45
  TRACK 25 AUDIO
    TITLE "DISC1Track20_25"
    INDEX 01 00:57:73
  TRACK 26 AUDIO
    TITLE "DISC1Track20_26"
    INDEX 01 01:00:65
  TRACK 27 AUDIO
    TITLE "DISC1Track20_27"
    INDEX 01 01:01:08
  TRACK 28 AUDIO
    TITLE "DISC1Track20_28"
    INDEX 01 01:04:01
  TRACK 29 AUDIO
    TITLE "DISC1Track20_29"
    INDEX 01 01:07:34
  TRACK 30 AUDIO
    TITLE "DISC1Track20_30"
    INDEX 01 01:10:42
  TRACK 31 AUDIO
    TITLE "DISC1Track20_31"
    INDEX 01 01:10:56
  TRACK 32 AUDIO
    TITLE "DISC1Track20_32"
    INDEX 01 01:13:19
  TRACK 33 AUDIO
    TITLE "DISC1Track20_33"
    INDEX 01 01:16:06
  TRACK 34 AUDIO
    TITLE "DISC1Track20_34"
    INDEX 01 01:18:30
  TRACK 35 AUDIO
    TITLE "DISC1Track20_35"
    INDEX 01 01:18:48
  TRACK 36 AUDIO
    TITLE "DISC1Track20_36"
    INDEX 01 01:23:59
  TRACK 37 AUDIO
    TITLE "DISC1Track20_37"
    INDEX 01 01:28:68
  TRACK 38 AUDIO
    TITLE "DISC1Track20_38"
    INDEX 01 01:33:43
  TRACK 39 AUDIO
    TITLE "DISC1Track20_39"
    INDEX 01 01:33:61
  TRACK 40 AUDIO
    TITLE "DISC1Track20_40"
    INDEX 01 01:37:00
  TRACK 41 AUDIO
    TITLE "DISC1Track20_41"
    INDEX 01 01:39:65
  TRACK 42 AUDIO
    TITLE "DISC1Track20_42"
    INDEX 01 01:42:38
  TRACK 43 AUDIO
    TITLE "DISC1Track20_43"
    INDEX 01 01:42:52
  TRACK 44 AUDIO
    TITLE "DISC1Track20_44"
    INDEX 01 01:44:18
  TRACK 45 AUDIO
    TITLE "DISC1Track20_45"
    INDEX 01 01:46:34
  TRACK 46 AUDIO
    TITLE "DISC1Track20_46"
    INDEX 01 01:48:27
  TRACK 47 AUDIO
    TITLE "DISC1Track20_47"
    INDEX 01 01:48:37
  TRACK 48 AUDIO
    TITLE "DISC1Track20_48"
    INDEX 01 01:52:09
  TRACK 49 AUDIO
    TITLE "DISC1Track20_49"
    INDEX 01 01:56:11
  TRACK 50 AUDIO
    TITLE "DISC1Track20_50"
    INDEX 01 01:59:49
